HIERARCHY
ROOT Hips
{
  OFFSET 0 89.5177 0.535
  CHANNELS 6 Xposition Yposition Zposition Zrotation Xrotation Yrotation
  JOINT Spine
  {
    OFFSET 12.0259 -0.162855 1.69034e-005
    CHANNELS 3 Zrotation Xrotation Yrotation
    JOINT Spine1
    {
      OFFSET 15.3169 -0.0121922 0
      CHANNELS 3 Zrotation Xrotation Yrotation
      JOINT Spine2
      {
        OFFSET 15.3176 -0.0121908 0
        CHANNELS 3 Zrotation Xrotation Yrotation
        JOINT Neck
        {
          OFFSET 19.9142 1.56338 0
          CHANNELS 3 Zrotation Xrotation Yrotation
          JOINT Head
          {
            OFFSET 6.92651 0 0
            CHANNELS 3 Zrotation Xrotation Yrotation
            End Site
            {
              OFFSET 20.7666 0 0
            }
          }
          JOINT LeftShoulder
          {
            OFFSET -6.20654 0.708824 7.28219
            CHANNELS 3 Zrotation Xrotation Yrotation
            JOINT LeftArm
            {
              OFFSET 14.108 0 -1.52588e-005
              CHANNELS 3 Zrotation Xrotation Yrotation
              JOINT LeftForeArm
              {
                OFFSET 28.5802 0 0
                CHANNELS 3 Zrotation Xrotation Yrotation
                JOINT LeftHand
                {
                  OFFSET 27.092 0 0
                  CHANNELS 3 Zrotation Xrotation Yrotation
                  End Site
                  {
                    OFFSET 9.55928 -0.186424 0.145352
                  }
                }
              }
            }
          }
          JOINT RightShoulder
          {
            OFFSET -6.20654 0.708866 -7.28218
            CHANNELS 3 Zrotation Xrotation Yrotation
            JOINT RightArm
            {
              OFFSET 14.108 0 1.52588e-005
              CHANNELS 3 Zrotation Xrotation Yrotation
              JOINT RightForeArm
              {
                OFFSET 28.5802 0 0
                CHANNELS 3 Zrotation Xrotation Yrotation
                JOINT RightHand
                {
                  OFFSET 27.092 0 0
                  CHANNELS 3 Zrotation Xrotation Yrotation
                  End Site
                  {
                    OFFSET 9.55929 -0.186417 -0.145354
                  }
                }
              }
            }
          }
        }
      }
    }
  }
  JOINT LeftUpLeg
  {
    OFFSET 0.005 -0.535 8.837
    CHANNELS 3 Zrotation Xrotation Yrotation
    JOINT LeftLeg
    {
      OFFSET 39.9035 0 0
      CHANNELS 3 Zrotation Xrotation Yrotation
      JOINT LeftFoot
      {
        OFFSET 39.6689 0 0
        CHANNELS 3 Zrotation Xrotation Yrotation
        JOINT LeftToe
        {
          OFFSET 10.1624 13.6296 0
          CHANNELS 3 Zrotation Xrotation Yrotation
          End Site
          {
            OFFSET 8.38147 0 0
          }
        }
      }
    }
  }
  JOINT RightUpLeg
  {
    OFFSET 0.005 -0.535 -8.837
    CHANNELS 3 Zrotation Xrotation Yrotation
    JOINT RightLeg
    {
      OFFSET 39.9035 0 0
      CHANNELS 3 Zrotation Xrotation Yrotation
      JOINT RightFoot
      {
        OFFSET 39.6689 0 0
        CHANNELS 3 Zrotation Xrotation Yrotation
        JOINT RightToe
        {
          OFFSET 10.1624 13.6296 0
          CHANNELS 3 Zrotation Xrotation Yrotation
          End Site
          {
            OFFSET 8.38147 0 0
          }
        }
      }
    }
  }
}
MOTION
Frames:	6
Frame Time:	0.0333333
481.519 89.8709 270.988 -178.859 -74.6104 91.8979 3.22965 -0.855572 1.5161 6.48178 -1.62358 3.07859 6.48178 -1.62358 3.07858 -8.31702e-012 -9.0191e-006 -5.27751e-005 -23.48 18.5608 -7.97796 179.585 1.32582 -72.6022 -50.1722 4.73199 58.4713 -75.2585 -1.59028e-015 -9.54166e-015 -70.0948 -11.841 -47.048 178.756 -4.25929 73.707 9.14018 21.9788 -68.8587 -67.759 -4.77083e-015 -4.77083e-015 -41.5677 70.5942 52.3604 -21.5088 16.6011 -168.649 -16.5508 0 2.38542e-015 3.46714 7.19461 -8.99473 90 0 -0 -29.2052 -2.64909 179.027 -15.8168 -3.97569e-016 -1.2424e-016 6.29763 -12.9065 11.841 90 -3.62782e-015 -1.59028e-015 
482.173 89.9608 270.39 -178.006 -75.7838 92.982 3.14892 -0.971366 1.51736 6.32371 -1.85708 3.08655 6.32371 -1.85708 3.08654 -8.30748e-012 -9.0191e-006 -5.27751e-005 -20.9774 19.7644 -8.3392 179.683 1.0296 -72.886 -52.0925 2.37822 57.0615 -76.2179 0 -0 -70.3808 -11.3441 -46.1666 178.868 -3.97469 74.0861 10.0397 23.6129 -68.9295 -73.9254 -1.59028e-015 -0 -44.4013 70.0648 55.1524 -21.9587 14.234 -167.687 -20.7373 -1.59028e-015 -0 3.27697 7.83097 -9.94853 90 3.97569e-016 -4.77083e-015 -27.7531 -2.47013 179.321 -16.1297 3.97569e-016 1.49089e-016 6.83514 -12.8375 11.6477 90 3.97569e-016 6.36111e-015 
482.783 90.0553 269.759 -177.57 -77.1375 93.6385 3.11356 -1.00864 1.46638 6.25325 -1.93531 2.98616 6.25325 -1.93531 2.98615 -8.30112e-012 -9.0191e-006 -5.27751e-005 -17.8718 20.5332 -9.10428 179.759 0.82924 -73.7799 -54.7684 -0.625427 55.4186 -77.2391 1.59028e-015 3.18055e-015 -70.3005 -11.0509 -45.3558 179.18 -2.96429 74.5264 10.61 26.266 -69.2583 -80.2403 0 -3.18055e-015 -47.0453 69.2406 57.6608 -22.0632 11.2412 -167.011 -24.9494 3.18055e-015 -7.95139e-016 2.83391 8.63686 -10.4458 90 3.97569e-016 7.95139e-016 -25.9268 -2.06543 179.607 -16.1234 3.97569e-016 5.2181e-016 7.14754 -12.4879 11.2743 90 -9.44227e-016 -0 
483.287 90.1535 269.102 -177.568 -78.536 93.8034 2.95774 -1.23585 1.47416 5.94825 -2.39307 3.01126 5.94825 -2.39307 3.01126 -8.31066e-012 -9.0191e-006 -5.27751e-005 -14.054 22.2847 -10.1306 179.965 0.117893 -73.453 -56.9743 -2.60499 53.0359 -79.8438 1.78906e-015 -6.36111e-015 -68.7389 -14.2128 -46.6621 179.153 -3.12513 74.8265 11.3247 28.6847 -68.9369 -86.6136 -3.97569e-016 -0 -49.1389 68.2516 59.5723 -22.1416 7.94138 -166.684 -29.5513 3.18055e-015 -7.95139e-016 2.00841 9.22941 -10.7156 90 0 7.95139e-016 -24.0944 -2.21849 179.752 -16.2295 1.19271e-015 1.73937e-016 7.70711 -12.5122 11.1367 90 -3.77691e-015 -0 
483.727 90.2723 268.433 -175.676 -79.947 95.8633 2.84608 -1.31309 1.41225 5.72581 -2.55353 2.88919 5.72581 -2.55353 2.88918 -8.30748e-012 -9.0191e-006 -5.27751e-005 -11.235 23.2884 -10.5179 -179.918 -0.279581 -73.7163 -59.6402 -5.25438 50.9946 -80.7507 7.95139e-016 6.36111e-015 -68.9598 -11.4316 -44.0869 179.321 -2.56677 75.1862 11.1624 31.951 -68.1487 -92.5006 1.98785e-015 -0 -51.7259 66.7626 61.9593 -21.6879 5.08502 -166.855 -34.0624 3.18055e-015 -1.98785e-015 1.16035 10.4521 -10.3673 90 0 -0 -22.1642 -2.24278 179.906 -16.1819 -3.97569e-016 -4.47266e-016 8.27133 -12.7597 11.1911 90 -1.54058e-015 1.59028e-015 
484.083 90.3606 267.787 -173.079 -81.11 98.2916 2.69217 -1.44089 1.42559 5.42183 -2.81226 2.91878 5.42183 -2.81226 2.91877 -8.31066e-012 -9.0191e-006 -5.27751e-005 -8.65973 24.0956 -11.3816 -179.68 -1.10437 -73.8398 -62.6015 -7.63896 48.6674 -83.347 1.59028e-015 3.18055e-015 -67.9344 -12.1957 -45.0756 179.391 -2.39255 75.7206 10.9514 35.3959 -67.0545 -97.8587 -2.38542e-015 9.54166e-015 -55.1446 64.8637 65.2232 -21.3256 2.57968 -167.327 -39.1055 0 -4.37326e-015 0.33439 11.9815 -9.22023 90 -1.98785e-016 7.95139e-016 -20.3227 -2.35055 -179.69 -15.872 7.95139e-016 7.45443e-016 8.77014 -13.0449 11.2917 90 -9.93923e-016 -1.59028e-015 
